<svg xmlns="http://www.w3.org/2000/svg" viewBox="0 0 1440 420" role="img" aria-labelledby="title desc">
  <title id="title">AI 採用的三大階段分佈深色主視覺</title>
  <desc id="desc">以深色三段堆疊長條呈現 AI 採用從探索評估、局部試行到深度整合的分佈。</desc>
  <defs>
    <linearGradient id="bg" x1="0" y1="0" x2="1" y2="1">
      <stop offset="0" stop-color="#141512"/>
      <stop offset="0.55" stop-color="#18221f"/>
      <stop offset="1" stop-color="#142031"/>
    </linearGradient>
    <filter id="shadow" x="-20%" y="-30%" width="140%" height="160%">
      <feDropShadow dx="0" dy="18" stdDeviation="24" flood-color="#000000" flood-opacity="0.28"/>
    </filter>
  </defs>
  <rect width="1440" height="420" rx="34" fill="url(#bg)"/>
  <g opacity="0.22" stroke="#f2f1ea" stroke-width="1">
    <path d="M80 0v420M160 0v420M240 0v420M320 0v420M400 0v420M480 0v420M560 0v420M640 0v420M720 0v420M800 0v420M880 0v420M960 0v420M1040 0v420M1120 0v420M1200 0v420M1280 0v420M1360 0v420"/>
    <path d="M0 70h1440M0 140h1440M0 210h1440M0 280h1440M0 350h1440"/>
  </g>
  <circle cx="1190" cy="86" r="112" fill="#378add" opacity="0.17"/>
  <circle cx="175" cy="322" r="136" fill="#38b785" opacity="0.16"/>
  <circle cx="764" cy="80" r="82" fill="#e37a3d" opacity="0.18"/>
  <g filter="url(#shadow)">
    <rect x="118" y="76" width="860" height="278" rx="28" fill="#20221d" stroke="#3a3c34"/>
    <g opacity="0.9">
      <rect x="166" y="118" width="148" height="12" rx="6" fill="#5b5d54"/>
      <rect x="166" y="144" width="248" height="10" rx="5" fill="#44473f"/>
    </g>
    <g transform="translate(166 180)">
      <rect width="610" height="32" rx="16" fill="#2e332d"/>
      <rect width="320" height="32" rx="16" fill="#6fac3a"/>
      <rect x="320" width="185" height="32" fill="#e3b63d"/>
      <rect x="505" width="105" height="32" rx="16" fill="#b88f3f"/>
      <circle cx="320" cy="16" r="8" fill="#20221d" opacity="0.9"/>
      <circle cx="505" cy="16" r="8" fill="#20221d" opacity="0.9"/>
    </g>
    <g transform="translate(166 234)">
      <rect width="610" height="32" rx="16" fill="#2e332d"/>
      <rect width="276" height="32" rx="16" fill="#6fac3a"/>
      <rect x="276" width="220" height="32" fill="#e3b63d"/>
      <rect x="496" width="114" height="32" rx="16" fill="#b88f3f"/>
      <circle cx="276" cy="16" r="8" fill="#20221d" opacity="0.9"/>
      <circle cx="496" cy="16" r="8" fill="#20221d" opacity="0.9"/>
    </g>
    <g transform="translate(166 288)">
      <rect width="610" height="32" rx="16" fill="#2e332d"/>
      <rect width="174" height="32" rx="16" fill="#6fac3a"/>
      <rect x="174" width="258" height="32" fill="#e3b63d"/>
      <rect x="432" width="178" height="32" rx="16" fill="#b88f3f"/>
      <circle cx="174" cy="16" r="8" fill="#20221d" opacity="0.9"/>
      <circle cx="432" cy="16" r="8" fill="#20221d" opacity="0.9"/>
    </g>
    <g transform="translate(166 336)">
      <rect width="56" height="14" rx="7" fill="#6fac3a"/>
      <rect x="74" width="56" height="14" rx="7" fill="#e3b63d"/>
      <rect x="148" width="56" height="14" rx="7" fill="#b88f3f"/>
    </g>
  </g>
  <g filter="url(#shadow)">
    <rect x="1034" y="102" width="286" height="222" rx="24" fill="#20221d" stroke="#3a3c34"/>
    <g transform="translate(1074 144)">
      <rect width="146" height="12" rx="6" fill="#5b5d54"/>
      <rect y="28" width="204" height="10" rx="5" fill="#44473f"/>
    </g>
    <g transform="translate(1074 210)">
      <circle cx="18" cy="18" r="18" fill="#b88f3f"/>
      <path d="M40 18h54" stroke="#5d6058" stroke-width="4" stroke-linecap="round"/>
      <circle cx="112" cy="18" r="18" fill="#e3b63d"/>
      <path d="M134 18h54" stroke="#5d6058" stroke-width="4" stroke-linecap="round"/>
      <circle cx="206" cy="18" r="18" fill="#6fac3a"/>
    </g>
    <g transform="translate(1074 270)">
      <rect width="52" height="14" rx="7" fill="#b88f3f"/>
      <rect x="72" width="52" height="14" rx="7" fill="#e3b63d"/>
      <rect x="144" width="52" height="14" rx="7" fill="#6fac3a"/>
    </g>
  </g>
</svg>
