<svg xmlns="http://www.w3.org/2000/svg" viewBox="0 0 1440 420" role="img" aria-labelledby="title desc">
  <title id="title">混合型職能發展能力深色主視覺</title>
  <desc id="desc">以深色雷達圖、層級節點與能力連線呈現混合型職能發展能力的影響範圍。</desc>
  <defs>
    <linearGradient id="bg" x1="0" y1="0" x2="1" y2="1">
      <stop offset="0" stop-color="#141512"/>
      <stop offset="0.55" stop-color="#18221f"/>
      <stop offset="1" stop-color="#142031"/>
    </linearGradient>
    <filter id="shadow" x="-20%" y="-30%" width="140%" height="160%">
      <feDropShadow dx="0" dy="18" stdDeviation="24" flood-color="#000000" flood-opacity="0.28"/>
    </filter>
  </defs>
  <rect width="1440" height="420" rx="34" fill="url(#bg)"/>
  <g opacity="0.22" stroke="#f2f1ea" stroke-width="1">
    <path d="M80 0v420M160 0v420M240 0v420M320 0v420M400 0v420M480 0v420M560 0v420M640 0v420M720 0v420M800 0v420M880 0v420M960 0v420M1040 0v420M1120 0v420M1200 0v420M1280 0v420M1360 0v420"/>
    <path d="M0 70h1440M0 140h1440M0 210h1440M0 280h1440M0 350h1440"/>
  </g>
  <circle cx="1190" cy="86" r="112" fill="#378add" opacity="0.17"/>
  <circle cx="175" cy="322" r="136" fill="#38b785" opacity="0.16"/>
  <circle cx="760" cy="78" r="82" fill="#e37a3d" opacity="0.18"/>
  <g filter="url(#shadow)">
    <rect x="168" y="70" width="1104" height="280" rx="30" fill="#20221d" stroke="#3a3c34"/>
    <g transform="translate(288 92)">
      <polygon points="120,18 217,88 180,202 60,202 23,88" fill="none" stroke="#56594f" stroke-width="2"/>
      <polygon points="120,46 190,97 164,178 76,178 50,97" fill="none" stroke="#56594f" stroke-width="2"/>
      <polygon points="120,74 164,106 148,154 92,154 76,106" fill="none" stroke="#56594f" stroke-width="2"/>
      <path d="M120 18v184M23 88l194 0M60 202l120-184M180 202L23 88M217 88L60 202" stroke="#3a3c34" stroke-width="1.5"/>
      <polygon points="120,36 198,88 168,180 72,176 44,96" fill="#5aa9f0" opacity="0.24"/>
      <polyline points="120,36 198,88 168,180 72,176 44,96 120,36" fill="none" stroke="#5aa9f0" stroke-width="6" stroke-linejoin="round"/>
      <circle cx="120" cy="36" r="7" fill="#5aa9f0"/>
      <circle cx="198" cy="88" r="7" fill="#5aa9f0"/>
      <circle cx="168" cy="180" r="7" fill="#5aa9f0"/>
      <circle cx="72" cy="176" r="7" fill="#5aa9f0"/>
      <circle cx="44" cy="96" r="7" fill="#5aa9f0"/>
    </g>
    <g transform="translate(610 92)">
      <polygon points="120,18 217,88 180,202 60,202 23,88" fill="none" stroke="#56594f" stroke-width="2"/>
      <polygon points="120,46 190,97 164,178 76,178 50,97" fill="none" stroke="#56594f" stroke-width="2"/>
      <polygon points="120,74 164,106 148,154 92,154 76,106" fill="none" stroke="#56594f" stroke-width="2"/>
      <path d="M120 18v184M23 88l194 0M60 202l120-184M180 202L23 88M217 88L60 202" stroke="#3a3c34" stroke-width="1.5"/>
      <polygon points="120,28 205,88 146,170 90,158 50,104" fill="#56c999" opacity="0.24"/>
      <polyline points="120,28 205,88 146,170 90,158 50,104 120,28" fill="none" stroke="#56c999" stroke-width="6" stroke-linejoin="round"/>
      <circle cx="120" cy="28" r="7" fill="#56c999"/>
      <circle cx="205" cy="88" r="7" fill="#56c999"/>
      <circle cx="146" cy="170" r="7" fill="#56c999"/>
      <circle cx="90" cy="158" r="7" fill="#56c999"/>
      <circle cx="50" cy="104" r="7" fill="#56c999"/>
    </g>
    <g transform="translate(932 92)">
      <polygon points="120,18 217,88 180,202 60,202 23,88" fill="none" stroke="#56594f" stroke-width="2"/>
      <polygon points="120,46 190,97 164,178 76,178 50,97" fill="none" stroke="#56594f" stroke-width="2"/>
      <polygon points="120,74 164,106 148,154 92,154 76,106" fill="none" stroke="#56594f" stroke-width="2"/>
      <path d="M120 18v184M23 88l194 0M60 202l120-184M180 202L23 88M217 88L60 202" stroke="#3a3c34" stroke-width="1.5"/>
      <polygon points="120,54 180,106 156,156 92,144 42,86" fill="#e98a4d" opacity="0.24"/>
      <polyline points="120,54 180,106 156,156 92,144 42,86 120,54" fill="none" stroke="#e98a4d" stroke-width="6" stroke-linejoin="round"/>
      <circle cx="120" cy="54" r="7" fill="#e98a4d"/>
      <circle cx="180" cy="106" r="7" fill="#e98a4d"/>
      <circle cx="156" cy="156" r="7" fill="#e98a4d"/>
      <circle cx="92" cy="144" r="7" fill="#e98a4d"/>
      <circle cx="42" cy="86" r="7" fill="#e98a4d"/>
    </g>
    <g stroke="#56594f" stroke-width="5" stroke-linecap="round" opacity="0.68">
      <path d="M528 212h82"/>
      <path d="M850 212h82"/>
      <path d="M398 318C500 364 604 356 720 318S940 272 1054 318"/>
    </g>
    <g>
      <circle cx="398" cy="318" r="18" fill="#5aa9f0"/>
      <circle cx="720" cy="318" r="18" fill="#56c999"/>
      <circle cx="1054" cy="318" r="18" fill="#e98a4d"/>
      <circle cx="562" cy="340" r="12" fill="#dd6d9d" opacity="0.76"/>
      <circle cx="884" cy="290" r="12" fill="#5aa9f0" opacity="0.76"/>
    </g>
  </g>
</svg>
