<svg xmlns="http://www.w3.org/2000/svg" viewBox="0 0 1440 420" role="img" aria-labelledby="title desc">
  <title id="title">各產業 AI 滲透率主視覺</title>
  <desc id="desc">以水平長條、產業節點與排序控制呈現 AI 在不同產業的滲透率差異。</desc>
  <defs>
    <linearGradient id="bg" x1="0" y1="0" x2="1" y2="1">
      <stop offset="0" stop-color="#fbfbf7"/>
      <stop offset="0.58" stop-color="#eef5f1"/>
      <stop offset="1" stop-color="#eaf1fb"/>
    </linearGradient>
    <linearGradient id="blue" x1="0" y1="0" x2="1" y2="0">
      <stop offset="0" stop-color="#69b7ff"/>
      <stop offset="1" stop-color="#2f7ddb"/>
    </linearGradient>
    <linearGradient id="green" x1="0" y1="0" x2="1" y2="0">
      <stop offset="0" stop-color="#8bd9b7"/>
      <stop offset="1" stop-color="#27a777"/>
    </linearGradient>
    <linearGradient id="orange" x1="0" y1="0" x2="1" y2="0">
      <stop offset="0" stop-color="#f8b47e"/>
      <stop offset="1" stop-color="#df6b35"/>
    </linearGradient>
    <linearGradient id="pink" x1="0" y1="0" x2="1" y2="0">
      <stop offset="0" stop-color="#f0a0c0"/>
      <stop offset="1" stop-color="#ce4d80"/>
    </linearGradient>
    <filter id="shadow" x="-20%" y="-30%" width="140%" height="160%">
      <feDropShadow dx="0" dy="18" stdDeviation="20" flood-color="#24312c" flood-opacity="0.12"/>
    </filter>
  </defs>
  <rect width="1440" height="420" rx="34" fill="url(#bg)"/>
  <g opacity="0.42" stroke="#d7ddd7" stroke-width="1">
    <path d="M80 0v420M160 0v420M240 0v420M320 0v420M400 0v420M480 0v420M560 0v420M640 0v420M720 0v420M800 0v420M880 0v420M960 0v420M1040 0v420M1120 0v420M1200 0v420M1280 0v420M1360 0v420"/>
    <path d="M0 70h1440M0 140h1440M0 210h1440M0 280h1440M0 350h1440"/>
  </g>
  <circle cx="1190" cy="86" r="110" fill="#b7d8f0" opacity="0.34"/>
  <circle cx="195" cy="332" r="145" fill="#bde7d3" opacity="0.36"/>
  <circle cx="790" cy="78" r="78" fill="#f4c7b0" opacity="0.36"/>
  <g filter="url(#shadow)">
    <rect x="120" y="78" width="360" height="270" rx="22" fill="#ffffff" opacity="0.92"/>
    <rect x="152" y="116" width="142" height="12" rx="6" fill="#d9d9d4"/>
    <rect x="152" y="148" width="255" height="10" rx="5" fill="#e4e4df"/>
    <g transform="translate(152 192)">
      <rect width="278" height="20" rx="10" fill="#ecf0f5"/>
      <rect width="236" height="20" rx="10" fill="url(#blue)"/>
      <circle cx="236" cy="10" r="13" fill="#378add"/>
      <path d="M258 10h32" stroke="#cbd2cd" stroke-width="7" stroke-linecap="round"/>
    </g>
    <g transform="translate(152 237)">
      <rect width="278" height="20" rx="10" fill="#ecf0f5"/>
      <rect width="201" height="20" rx="10" fill="url(#green)"/>
      <circle cx="201" cy="10" r="13" fill="#22a573"/>
      <path d="M223 10h32" stroke="#cbd2cd" stroke-width="7" stroke-linecap="round"/>
    </g>
    <g transform="translate(152 282)">
      <rect width="278" height="20" rx="10" fill="#ecf0f5"/>
      <rect width="162" height="20" rx="10" fill="url(#orange)"/>
      <circle cx="162" cy="10" r="13" fill="#dd6b35"/>
      <path d="M184 10h32" stroke="#cbd2cd" stroke-width="7" stroke-linecap="round"/>
    </g>
  </g>
  <g filter="url(#shadow)">
    <rect x="540" y="64" width="500" height="292" rx="28" fill="#ffffff" opacity="0.9"/>
    <rect x="580" y="104" width="122" height="14" rx="7" fill="#d7dad4"/>
    <rect x="580" y="136" width="310" height="10" rx="5" fill="#e5e7e1"/>
    <g transform="translate(582 186)">
      <circle cx="10" cy="7" r="7" fill="#378add"/>
      <path d="M28 7h76" stroke="#cbd2cd" stroke-width="8" stroke-linecap="round"/>
      <rect x="135" y="-3" width="298" height="20" rx="10" fill="#edf1f6"/>
      <rect x="135" y="-3" width="253" height="20" rx="10" fill="url(#blue)"/>
      <path d="M450 7h28" stroke="#cbd2cd" stroke-width="8" stroke-linecap="round"/>
    </g>
    <g transform="translate(582 228)">
      <circle cx="10" cy="7" r="7" fill="#378add"/>
      <path d="M28 7h58" stroke="#cbd2cd" stroke-width="8" stroke-linecap="round"/>
      <rect x="135" y="-3" width="298" height="20" rx="10" fill="#edf1f6"/>
      <rect x="135" y="-3" width="238" height="20" rx="10" fill="url(#blue)"/>
      <path d="M450 7h28" stroke="#cbd2cd" stroke-width="8" stroke-linecap="round"/>
    </g>
    <g transform="translate(582 270)">
      <circle cx="10" cy="7" r="7" fill="#1d9e75"/>
      <path d="M28 7h86" stroke="#cbd2cd" stroke-width="8" stroke-linecap="round"/>
      <rect x="135" y="-3" width="298" height="20" rx="10" fill="#edf1f6"/>
      <rect x="135" y="-3" width="214" height="20" rx="10" fill="url(#green)"/>
      <path d="M450 7h28" stroke="#cbd2cd" stroke-width="8" stroke-linecap="round"/>
    </g>
    <g transform="translate(582 312)">
      <circle cx="10" cy="7" r="7" fill="#d85a30"/>
      <path d="M28 7h70" stroke="#cbd2cd" stroke-width="8" stroke-linecap="round"/>
      <rect x="135" y="-3" width="298" height="20" rx="10" fill="#edf1f6"/>
      <rect x="135" y="-3" width="173" height="20" rx="10" fill="url(#orange)"/>
      <path d="M450 7h28" stroke="#cbd2cd" stroke-width="8" stroke-linecap="round"/>
    </g>
  </g>
  <g filter="url(#shadow)">
    <rect x="1090" y="112" width="230" height="196" rx="24" fill="#ffffff" opacity="0.9"/>
    <rect x="1124" y="146" width="88" height="12" rx="6" fill="#d9d9d4"/>
    <rect x="1124" y="170" width="134" height="10" rx="5" fill="#e5e5df"/>
    <rect x="1124" y="184" width="148" height="34" rx="17" fill="#378add"/>
    <circle cx="1144" cy="201" r="7" fill="#ffffff" opacity="0.9"/>
    <path d="M1162 201h70" stroke="#ffffff" stroke-width="7" stroke-linecap="round" opacity="0.86"/>
    <rect x="1124" y="232" width="116" height="34" rx="17" fill="#f3f0e8" stroke="#dedbd1"/>
    <circle cx="1144" cy="249" r="7" fill="#b9c9c1"/>
    <path d="M1162 249h44" stroke="#b9c9c1" stroke-width="7" stroke-linecap="round"/>
  </g>
</svg>
