<svg xmlns="http://www.w3.org/2000/svg" viewBox="0 0 1440 420" role="img" aria-labelledby="title desc">
  <title id="title">AI 採用的三大階段分佈主視覺</title>
  <desc id="desc">以三段堆疊長條呈現 AI 採用從探索評估、局部試行到深度整合的分佈。</desc>
  <defs>
    <linearGradient id="bg" x1="0" y1="0" x2="1" y2="1">
      <stop offset="0" stop-color="#fbfbf7"/>
      <stop offset="0.55" stop-color="#eff6f2"/>
      <stop offset="1" stop-color="#eef3fb"/>
    </linearGradient>
    <filter id="shadow" x="-20%" y="-30%" width="140%" height="160%">
      <feDropShadow dx="0" dy="18" stdDeviation="22" flood-color="#24312c" flood-opacity="0.13"/>
    </filter>
  </defs>
  <rect width="1440" height="420" rx="34" fill="url(#bg)"/>
  <g opacity="0.38" stroke="#d9ded8" stroke-width="1">
    <path d="M80 0v420M160 0v420M240 0v420M320 0v420M400 0v420M480 0v420M560 0v420M640 0v420M720 0v420M800 0v420M880 0v420M960 0v420M1040 0v420M1120 0v420M1200 0v420M1280 0v420M1360 0v420"/>
    <path d="M0 70h1440M0 140h1440M0 210h1440M0 280h1440M0 350h1440"/>
  </g>
  <circle cx="1190" cy="86" r="112" fill="#b7d8f0" opacity="0.32"/>
  <circle cx="175" cy="322" r="136" fill="#bde7d3" opacity="0.34"/>
  <circle cx="764" cy="80" r="82" fill="#f4c7b0" opacity="0.34"/>
  <g filter="url(#shadow)">
    <rect x="118" y="76" width="860" height="278" rx="28" fill="#ffffff" stroke="#e3e1d8"/>
    <g opacity="0.9">
      <rect x="166" y="118" width="148" height="12" rx="6" fill="#d9d9d4"/>
      <rect x="166" y="144" width="248" height="10" rx="5" fill="#e5e5df"/>
    </g>
    <g transform="translate(166 180)">
      <rect width="610" height="32" rx="16" fill="#edf0eb"/>
      <rect width="320" height="32" rx="16" fill="#3b6d11"/>
      <rect x="320" width="185" height="32" fill="#d8a21a"/>
      <rect x="505" width="105" height="32" rx="16" fill="#9f7a2b"/>
      <circle cx="320" cy="16" r="8" fill="#ffffff" opacity="0.88"/>
      <circle cx="505" cy="16" r="8" fill="#ffffff" opacity="0.88"/>
    </g>
    <g transform="translate(166 234)">
      <rect width="610" height="32" rx="16" fill="#edf0eb"/>
      <rect width="276" height="32" rx="16" fill="#3b6d11"/>
      <rect x="276" width="220" height="32" fill="#d8a21a"/>
      <rect x="496" width="114" height="32" rx="16" fill="#9f7a2b"/>
      <circle cx="276" cy="16" r="8" fill="#ffffff" opacity="0.88"/>
      <circle cx="496" cy="16" r="8" fill="#ffffff" opacity="0.88"/>
    </g>
    <g transform="translate(166 288)">
      <rect width="610" height="32" rx="16" fill="#edf0eb"/>
      <rect width="174" height="32" rx="16" fill="#3b6d11"/>
      <rect x="174" width="258" height="32" fill="#d8a21a"/>
      <rect x="432" width="178" height="32" rx="16" fill="#9f7a2b"/>
      <circle cx="174" cy="16" r="8" fill="#ffffff" opacity="0.88"/>
      <circle cx="432" cy="16" r="8" fill="#ffffff" opacity="0.88"/>
    </g>
    <g transform="translate(166 336)">
      <rect width="56" height="14" rx="7" fill="#3b6d11"/>
      <rect x="74" width="56" height="14" rx="7" fill="#d8a21a"/>
      <rect x="148" width="56" height="14" rx="7" fill="#9f7a2b"/>
    </g>
  </g>
  <g filter="url(#shadow)">
    <rect x="1034" y="102" width="286" height="222" rx="24" fill="#ffffff" stroke="#e3e1d8"/>
    <g transform="translate(1074 144)">
      <rect width="146" height="12" rx="6" fill="#d9d9d4"/>
      <rect y="28" width="204" height="10" rx="5" fill="#e5e5df"/>
    </g>
    <g transform="translate(1074 210)">
      <circle cx="18" cy="18" r="18" fill="#9f7a2b"/>
      <path d="M40 18h54" stroke="#c9c6bd" stroke-width="4" stroke-linecap="round"/>
      <circle cx="112" cy="18" r="18" fill="#d8a21a"/>
      <path d="M134 18h54" stroke="#c9c6bd" stroke-width="4" stroke-linecap="round"/>
      <circle cx="206" cy="18" r="18" fill="#3b6d11"/>
    </g>
    <g transform="translate(1074 270)">
      <rect width="52" height="14" rx="7" fill="#9f7a2b"/>
      <rect x="72" width="52" height="14" rx="7" fill="#d8a21a"/>
      <rect x="144" width="52" height="14" rx="7" fill="#3b6d11"/>
    </g>
  </g>
</svg>
