<svg xmlns="http://www.w3.org/2000/svg" viewBox="0 0 1440 420" role="img" aria-labelledby="title desc">
  <title id="title">各產業 AI 應用實際影響深色主視覺</title>
  <desc id="desc">以深色產業卡片、工作流節點與成效指標呈現 AI 對各產業應用的實際影響。</desc>
  <defs>
    <linearGradient id="bg" x1="0" y1="0" x2="1" y2="1">
      <stop offset="0" stop-color="#141512"/>
      <stop offset="0.55" stop-color="#18221f"/>
      <stop offset="1" stop-color="#142031"/>
    </linearGradient>
    <filter id="shadow" x="-20%" y="-30%" width="140%" height="160%">
      <feDropShadow dx="0" dy="18" stdDeviation="24" flood-color="#000000" flood-opacity="0.28"/>
    </filter>
  </defs>
  <rect width="1440" height="420" rx="34" fill="url(#bg)"/>
  <g opacity="0.22" stroke="#f2f1ea" stroke-width="1">
    <path d="M80 0v420M160 0v420M240 0v420M320 0v420M400 0v420M480 0v420M560 0v420M640 0v420M720 0v420M800 0v420M880 0v420M960 0v420M1040 0v420M1120 0v420M1200 0v420M1280 0v420M1360 0v420"/>
    <path d="M0 70h1440M0 140h1440M0 210h1440M0 280h1440M0 350h1440"/>
  </g>
  <circle cx="1185" cy="92" r="118" fill="#378add" opacity="0.17"/>
  <circle cx="178" cy="320" r="132" fill="#38b785" opacity="0.16"/>
  <circle cx="755" cy="76" r="82" fill="#e37a3d" opacity="0.18"/>
  <g filter="url(#shadow)">
    <rect x="116" y="90" width="330" height="236" rx="26" fill="#20221d" stroke="#3a3c34"/>
    <rect x="152" y="126" width="82" height="30" rx="15" fill="#23382d"/>
    <circle cx="174" cy="141" r="7" fill="#56c999"/>
    <path d="M190 141h34" stroke="#46695a" stroke-width="6" stroke-linecap="round"/>
    <rect x="152" y="176" width="164" height="28" rx="14" fill="#2e332d"/>
    <rect x="152" y="176" width="118" height="28" rx="14" fill="#5aa9f0"/>
    <circle cx="270" cy="190" r="12" fill="#20221d" opacity="0.88"/>
    <rect x="152" y="224" width="208" height="10" rx="5" fill="#5b5d54"/>
    <rect x="152" y="244" width="148" height="10" rx="5" fill="#44473f"/>
    <path d="M152 268h62l26-26 34 20 42-58" fill="none" stroke="#5aa9f0" stroke-width="8" stroke-linecap="round" stroke-linejoin="round"/>
  </g>
  <g filter="url(#shadow)">
    <rect x="500" y="90" width="330" height="236" rx="26" fill="#20221d" stroke="#3a3c34"/>
    <rect x="536" y="126" width="94" height="30" rx="15" fill="#1f3040"/>
    <circle cx="558" cy="141" r="7" fill="#5aa9f0"/>
    <path d="M574 141h44" stroke="#405d75" stroke-width="6" stroke-linecap="round"/>
    <rect x="536" y="176" width="164" height="28" rx="14" fill="#2e332d"/>
    <rect x="536" y="176" width="94" height="28" rx="14" fill="#56c999"/>
    <circle cx="630" cy="190" r="12" fill="#20221d" opacity="0.88"/>
    <rect x="536" y="224" width="230" height="10" rx="5" fill="#5b5d54"/>
    <rect x="536" y="244" width="164" height="10" rx="5" fill="#44473f"/>
    <g transform="translate(536 256)" fill="none" stroke-width="7" stroke-linecap="round">
      <path d="M0 24h54l20-24 30 60 24-36h70" stroke="#56c999"/>
      <circle cx="218" cy="24" r="18" fill="#56c999" opacity="0.24" stroke="#56c999"/>
    </g>
  </g>
  <g filter="url(#shadow)">
    <rect x="884" y="90" width="330" height="236" rx="26" fill="#20221d" stroke="#3a3c34"/>
    <rect x="920" y="126" width="92" height="30" rx="15" fill="#3c2b21"/>
    <circle cx="942" cy="141" r="7" fill="#e98a4d"/>
    <path d="M958 141h42" stroke="#7b5642" stroke-width="6" stroke-linecap="round"/>
    <rect x="920" y="176" width="164" height="28" rx="14" fill="#2e332d"/>
    <rect x="920" y="176" width="82" height="28" rx="14" fill="#e98a4d"/>
    <circle cx="1002" cy="190" r="12" fill="#20221d" opacity="0.88"/>
    <rect x="920" y="224" width="212" height="10" rx="5" fill="#5b5d54"/>
    <rect x="920" y="244" width="136" height="10" rx="5" fill="#44473f"/>
    <g transform="translate(920 254)">
      <rect x="0" y="20" width="42" height="46" rx="8" fill="#e98a4d" opacity="0.72"/>
      <rect x="58" y="0" width="42" height="66" rx="8" fill="#5aa9f0" opacity="0.78"/>
      <rect x="116" y="32" width="42" height="34" rx="8" fill="#56c999" opacity="0.74"/>
      <path d="M188 58C220 18 242 12 270 8" fill="none" stroke="#e98a4d" stroke-width="7" stroke-linecap="round"/>
    </g>
  </g>
  <g filter="url(#shadow)">
    <rect x="298" y="338" width="844" height="46" rx="23" fill="#20221d" stroke="#3a3c34"/>
    <circle cx="336" cy="361" r="9" fill="#5aa9f0"/>
    <path d="M350 361h148" stroke="#5aa9f0" stroke-width="5" stroke-linecap="round"/>
    <circle cx="522" cy="361" r="9" fill="#56c999"/>
    <path d="M536 361h148" stroke="#56c999" stroke-width="5" stroke-linecap="round"/>
    <circle cx="708" cy="361" r="9" fill="#e98a4d"/>
    <path d="M722 361h148" stroke="#e98a4d" stroke-width="5" stroke-linecap="round"/>
    <circle cx="912" cy="361" r="9" fill="#5aa9f0" opacity="0.72"/>
    <path d="M926 361h48" stroke="#56594f" stroke-width="5" stroke-linecap="round"/>
    <circle cx="996" cy="361" r="9" fill="#56c999" opacity="0.72"/>
    <path d="M1010 361h48" stroke="#56594f" stroke-width="5" stroke-linecap="round"/>
    <circle cx="1080" cy="361" r="9" fill="#e98a4d" opacity="0.72"/>
  </g>
</svg>
